<mxfile host="app.diagrams.net" modified="2022-11-11T15:25:13.054Z" agent="5.0 (Macintosh; Intel Mac OS X 10_14_6) AppleWebKit/537.36 (KHTML, like Gecko) Chrome/106.0.0.0 Safari/537.36" etag="gMV1CxFwC6H4JuYfKVUV" version="20.4.1" type="github">
  <diagram id="que9vwapB_2hfNMrXVt0" name="第 1 页">
    <mxGraphModel dx="1577" dy="2059" grid="1" gridSize="10" guides="1" tooltips="1" connect="1" arrows="1" fold="1" page="1" pageScale="1" pageWidth="827" pageHeight="1169" math="0" shadow="0">
      <root>
        <mxCell id="0" />
        <mxCell id="1" parent="0" />
        <mxCell id="xlf5OFWuZGYbSsyeMgTy-2" value="" style="rounded=1;whiteSpace=wrap;html=1;strokeWidth=2;fillWeight=4;hachureGap=8;hachureAngle=45;fillColor=#d5e8d4;sketch=0;shadow=0;glass=0;strokeColor=#82b366;fontStyle=1;fontSize=20;" vertex="1" parent="1">
          <mxGeometry x="360" y="120" width="120" height="200" as="geometry" />
        </mxCell>
        <mxCell id="xlf5OFWuZGYbSsyeMgTy-3" value="" style="rounded=1;whiteSpace=wrap;html=1;strokeWidth=2;fillWeight=4;hachureGap=8;hachureAngle=45;fillColor=#d5e8d4;sketch=0;shadow=0;glass=0;strokeColor=#82b366;fontStyle=1;fontSize=20;" vertex="1" parent="1">
          <mxGeometry x="560" y="120" width="120" height="200" as="geometry" />
        </mxCell>
        <mxCell id="xlf5OFWuZGYbSsyeMgTy-4" value="" style="rounded=1;whiteSpace=wrap;html=1;strokeWidth=2;fillWeight=4;hachureGap=8;hachureAngle=45;fillColor=#d5e8d4;sketch=0;shadow=0;glass=0;strokeColor=#82b366;fontStyle=1;fontSize=20;" vertex="1" parent="1">
          <mxGeometry x="760" y="120" width="120" height="200" as="geometry" />
        </mxCell>
        <mxCell id="xlf5OFWuZGYbSsyeMgTy-5" value="" style="rounded=1;whiteSpace=wrap;html=1;strokeWidth=2;fillWeight=4;hachureGap=8;hachureAngle=45;fillColor=#d5e8d4;sketch=0;shadow=0;glass=0;strokeColor=#82b366;fontStyle=1;fontSize=20;" vertex="1" parent="1">
          <mxGeometry x="960" y="120" width="120" height="200" as="geometry" />
        </mxCell>
        <mxCell id="xlf5OFWuZGYbSsyeMgTy-21" style="edgeStyle=orthogonalEdgeStyle;rounded=0;orthogonalLoop=1;jettySize=auto;html=1;exitX=1;exitY=0.5;exitDx=0;exitDy=0;entryX=-0.008;entryY=0.2;entryDx=0;entryDy=0;entryPerimeter=0;strokeWidth=2;sketch=1;shadow=1;fontStyle=1;fontSize=20;" edge="1" parent="1" source="xlf5OFWuZGYbSsyeMgTy-6" target="xlf5OFWuZGYbSsyeMgTy-3">
          <mxGeometry relative="1" as="geometry" />
        </mxCell>
        <mxCell id="xlf5OFWuZGYbSsyeMgTy-6" value="next" style="rounded=1;whiteSpace=wrap;html=1;strokeWidth=2;fillWeight=4;hachureGap=8;hachureAngle=45;fillColor=#dae8fc;sketch=0;shadow=0;glass=0;strokeColor=#6c8ebf;fontStyle=1;fontSize=20;" vertex="1" parent="1">
          <mxGeometry x="380" y="140" width="80" height="40" as="geometry" />
        </mxCell>
        <mxCell id="xlf5OFWuZGYbSsyeMgTy-7" value="prev" style="rounded=1;whiteSpace=wrap;html=1;strokeWidth=2;fillWeight=4;hachureGap=8;hachureAngle=45;fillColor=#f8cecc;sketch=0;shadow=0;glass=0;strokeColor=#b85450;fontStyle=1;fontSize=20;" vertex="1" parent="1">
          <mxGeometry x="380" y="200" width="80" height="40" as="geometry" />
        </mxCell>
        <mxCell id="xlf5OFWuZGYbSsyeMgTy-42" style="edgeStyle=orthogonalEdgeStyle;rounded=1;sketch=1;orthogonalLoop=1;jettySize=auto;html=1;exitX=0.5;exitY=1;exitDx=0;exitDy=0;entryX=0.5;entryY=0;entryDx=0;entryDy=0;shadow=1;strokeWidth=2;fontStyle=1;fontSize=20;" edge="1" parent="1" source="xlf5OFWuZGYbSsyeMgTy-8" target="xlf5OFWuZGYbSsyeMgTy-27">
          <mxGeometry relative="1" as="geometry" />
        </mxCell>
        <mxCell id="xlf5OFWuZGYbSsyeMgTy-8" value="ctl" style="rounded=1;whiteSpace=wrap;html=1;strokeWidth=2;fillWeight=4;hachureGap=8;hachureAngle=45;fillColor=#fff2cc;sketch=0;shadow=0;glass=0;strokeColor=#d6b656;fontStyle=1;fontSize=20;" vertex="1" parent="1">
          <mxGeometry x="380" y="260" width="80" height="40" as="geometry" />
        </mxCell>
        <mxCell id="xlf5OFWuZGYbSsyeMgTy-20" style="edgeStyle=orthogonalEdgeStyle;rounded=0;orthogonalLoop=1;jettySize=auto;html=1;exitX=1;exitY=0.5;exitDx=0;exitDy=0;entryX=-0.025;entryY=0.2;entryDx=0;entryDy=0;entryPerimeter=0;strokeWidth=2;sketch=1;shadow=1;fontStyle=1;fontSize=20;" edge="1" parent="1" source="xlf5OFWuZGYbSsyeMgTy-10" target="xlf5OFWuZGYbSsyeMgTy-4">
          <mxGeometry relative="1" as="geometry" />
        </mxCell>
        <mxCell id="xlf5OFWuZGYbSsyeMgTy-10" value="next" style="rounded=1;whiteSpace=wrap;html=1;strokeWidth=2;fillWeight=4;hachureGap=8;hachureAngle=45;fillColor=#dae8fc;sketch=0;shadow=0;glass=0;strokeColor=#6c8ebf;fontStyle=1;fontSize=20;" vertex="1" parent="1">
          <mxGeometry x="580" y="140" width="80" height="40" as="geometry" />
        </mxCell>
        <mxCell id="xlf5OFWuZGYbSsyeMgTy-22" style="edgeStyle=orthogonalEdgeStyle;rounded=1;orthogonalLoop=1;jettySize=auto;html=1;entryX=1;entryY=0.5;entryDx=0;entryDy=0;strokeWidth=2;sketch=1;shadow=1;fontStyle=1;fontSize=20;" edge="1" parent="1" source="xlf5OFWuZGYbSsyeMgTy-11" target="xlf5OFWuZGYbSsyeMgTy-2">
          <mxGeometry relative="1" as="geometry" />
        </mxCell>
        <mxCell id="xlf5OFWuZGYbSsyeMgTy-11" value="prev" style="rounded=1;whiteSpace=wrap;html=1;strokeWidth=2;fillWeight=4;hachureGap=8;hachureAngle=45;fillColor=#f8cecc;sketch=0;shadow=0;glass=0;strokeColor=#b85450;fontStyle=1;fontSize=20;" vertex="1" parent="1">
          <mxGeometry x="580" y="200" width="80" height="40" as="geometry" />
        </mxCell>
        <mxCell id="xlf5OFWuZGYbSsyeMgTy-43" style="edgeStyle=orthogonalEdgeStyle;rounded=1;sketch=1;orthogonalLoop=1;jettySize=auto;html=1;exitX=0.5;exitY=1;exitDx=0;exitDy=0;entryX=0.5;entryY=0;entryDx=0;entryDy=0;shadow=1;strokeWidth=2;fontStyle=1;fontSize=20;" edge="1" parent="1" source="xlf5OFWuZGYbSsyeMgTy-12" target="xlf5OFWuZGYbSsyeMgTy-28">
          <mxGeometry relative="1" as="geometry" />
        </mxCell>
        <mxCell id="xlf5OFWuZGYbSsyeMgTy-12" value="ctl" style="rounded=1;whiteSpace=wrap;html=1;strokeWidth=2;fillWeight=4;hachureGap=8;hachureAngle=45;fillColor=#fff2cc;sketch=0;shadow=0;glass=0;strokeColor=#d6b656;fontStyle=1;fontSize=20;" vertex="1" parent="1">
          <mxGeometry x="580" y="260" width="80" height="40" as="geometry" />
        </mxCell>
        <mxCell id="xlf5OFWuZGYbSsyeMgTy-24" style="edgeStyle=orthogonalEdgeStyle;rounded=0;orthogonalLoop=1;jettySize=auto;html=1;entryX=0;entryY=0.2;entryDx=0;entryDy=0;entryPerimeter=0;strokeWidth=2;sketch=1;shadow=1;fontStyle=1;fontSize=20;" edge="1" parent="1" source="xlf5OFWuZGYbSsyeMgTy-13" target="xlf5OFWuZGYbSsyeMgTy-5">
          <mxGeometry relative="1" as="geometry" />
        </mxCell>
        <mxCell id="xlf5OFWuZGYbSsyeMgTy-13" value="next" style="rounded=1;whiteSpace=wrap;html=1;strokeWidth=2;fillWeight=4;hachureGap=8;hachureAngle=45;fillColor=#dae8fc;sketch=0;shadow=0;glass=0;strokeColor=#6c8ebf;fontStyle=1;fontSize=20;" vertex="1" parent="1">
          <mxGeometry x="780" y="140" width="80" height="40" as="geometry" />
        </mxCell>
        <mxCell id="xlf5OFWuZGYbSsyeMgTy-26" style="edgeStyle=orthogonalEdgeStyle;rounded=0;orthogonalLoop=1;jettySize=auto;html=1;entryX=1;entryY=0.5;entryDx=0;entryDy=0;strokeWidth=2;sketch=1;shadow=1;fontStyle=1;fontSize=20;" edge="1" parent="1" source="xlf5OFWuZGYbSsyeMgTy-14" target="xlf5OFWuZGYbSsyeMgTy-3">
          <mxGeometry relative="1" as="geometry" />
        </mxCell>
        <mxCell id="xlf5OFWuZGYbSsyeMgTy-14" value="prev" style="rounded=1;whiteSpace=wrap;html=1;strokeWidth=2;fillWeight=4;hachureGap=8;hachureAngle=45;fillColor=#f8cecc;sketch=0;shadow=0;glass=0;strokeColor=#b85450;fontStyle=1;fontSize=20;" vertex="1" parent="1">
          <mxGeometry x="780" y="200" width="80" height="40" as="geometry" />
        </mxCell>
        <mxCell id="xlf5OFWuZGYbSsyeMgTy-44" style="edgeStyle=orthogonalEdgeStyle;rounded=1;sketch=1;orthogonalLoop=1;jettySize=auto;html=1;exitX=0.5;exitY=1;exitDx=0;exitDy=0;entryX=0.5;entryY=0;entryDx=0;entryDy=0;shadow=1;strokeWidth=2;fontStyle=1;fontSize=20;" edge="1" parent="1" source="xlf5OFWuZGYbSsyeMgTy-15" target="xlf5OFWuZGYbSsyeMgTy-29">
          <mxGeometry relative="1" as="geometry" />
        </mxCell>
        <mxCell id="xlf5OFWuZGYbSsyeMgTy-15" value="ctl" style="rounded=1;whiteSpace=wrap;html=1;strokeWidth=2;fillWeight=4;hachureGap=8;hachureAngle=45;fillColor=#fff2cc;sketch=0;shadow=0;glass=0;strokeColor=#d6b656;fontStyle=1;fontSize=20;" vertex="1" parent="1">
          <mxGeometry x="780" y="260" width="80" height="40" as="geometry" />
        </mxCell>
        <mxCell id="xlf5OFWuZGYbSsyeMgTy-16" value="next" style="rounded=1;whiteSpace=wrap;html=1;strokeWidth=2;fillWeight=4;hachureGap=8;hachureAngle=45;fillColor=#dae8fc;sketch=0;shadow=0;glass=0;strokeColor=#6c8ebf;fontStyle=1;fontSize=20;" vertex="1" parent="1">
          <mxGeometry x="980" y="140" width="80" height="40" as="geometry" />
        </mxCell>
        <mxCell id="xlf5OFWuZGYbSsyeMgTy-25" style="edgeStyle=orthogonalEdgeStyle;rounded=0;orthogonalLoop=1;jettySize=auto;html=1;entryX=1;entryY=0.5;entryDx=0;entryDy=0;strokeWidth=2;sketch=1;shadow=1;fontStyle=1;fontSize=20;" edge="1" parent="1" source="xlf5OFWuZGYbSsyeMgTy-17" target="xlf5OFWuZGYbSsyeMgTy-4">
          <mxGeometry relative="1" as="geometry" />
        </mxCell>
        <mxCell id="xlf5OFWuZGYbSsyeMgTy-17" value="prev" style="rounded=1;whiteSpace=wrap;html=1;strokeWidth=2;fillWeight=4;hachureGap=8;hachureAngle=45;fillColor=#f8cecc;sketch=0;shadow=0;glass=0;strokeColor=#b85450;fontStyle=1;fontSize=20;" vertex="1" parent="1">
          <mxGeometry x="980" y="200" width="80" height="40" as="geometry" />
        </mxCell>
        <mxCell id="xlf5OFWuZGYbSsyeMgTy-45" style="edgeStyle=orthogonalEdgeStyle;rounded=1;sketch=1;orthogonalLoop=1;jettySize=auto;html=1;exitX=0.5;exitY=1;exitDx=0;exitDy=0;shadow=1;strokeWidth=2;fontStyle=1;fontSize=20;" edge="1" parent="1" source="xlf5OFWuZGYbSsyeMgTy-18" target="xlf5OFWuZGYbSsyeMgTy-30">
          <mxGeometry relative="1" as="geometry" />
        </mxCell>
        <mxCell id="xlf5OFWuZGYbSsyeMgTy-18" value="ctl" style="rounded=1;whiteSpace=wrap;html=1;strokeWidth=2;fillWeight=4;hachureGap=8;hachureAngle=45;fillColor=#fff2cc;sketch=0;shadow=0;glass=0;strokeColor=#d6b656;fontStyle=1;fontSize=20;" vertex="1" parent="1">
          <mxGeometry x="980" y="260" width="80" height="40" as="geometry" />
        </mxCell>
        <mxCell id="xlf5OFWuZGYbSsyeMgTy-50" style="edgeStyle=orthogonalEdgeStyle;rounded=1;sketch=1;orthogonalLoop=1;jettySize=auto;html=1;exitX=0.5;exitY=1;exitDx=0;exitDy=0;shadow=1;strokeWidth=2;fontStyle=1;fontSize=20;" edge="1" parent="1" source="xlf5OFWuZGYbSsyeMgTy-27" target="xlf5OFWuZGYbSsyeMgTy-46">
          <mxGeometry relative="1" as="geometry" />
        </mxCell>
        <mxCell id="xlf5OFWuZGYbSsyeMgTy-27" value="控制块" style="rounded=1;whiteSpace=wrap;html=1;strokeWidth=2;fillWeight=4;hachureGap=8;hachureAngle=45;fillColor=#ffe6cc;sketch=0;shadow=0;glass=0;strokeColor=#d79b00;fontStyle=1;fontSize=20;" vertex="1" parent="1">
          <mxGeometry x="360" y="360" width="120" height="40" as="geometry" />
        </mxCell>
        <mxCell id="xlf5OFWuZGYbSsyeMgTy-51" style="edgeStyle=orthogonalEdgeStyle;rounded=1;sketch=1;orthogonalLoop=1;jettySize=auto;html=1;exitX=0.5;exitY=1;exitDx=0;exitDy=0;shadow=1;strokeWidth=2;fontStyle=1;fontSize=20;" edge="1" parent="1" source="xlf5OFWuZGYbSsyeMgTy-28" target="xlf5OFWuZGYbSsyeMgTy-47">
          <mxGeometry relative="1" as="geometry" />
        </mxCell>
        <mxCell id="xlf5OFWuZGYbSsyeMgTy-28" value="控制块" style="rounded=1;whiteSpace=wrap;html=1;strokeWidth=2;fillWeight=4;hachureGap=8;hachureAngle=45;fillColor=#ffe6cc;sketch=0;shadow=0;glass=0;strokeColor=#d79b00;fontStyle=1;fontSize=20;" vertex="1" parent="1">
          <mxGeometry x="560" y="360" width="120" height="40" as="geometry" />
        </mxCell>
        <mxCell id="xlf5OFWuZGYbSsyeMgTy-52" style="edgeStyle=orthogonalEdgeStyle;rounded=1;sketch=1;orthogonalLoop=1;jettySize=auto;html=1;exitX=0.5;exitY=1;exitDx=0;exitDy=0;shadow=1;strokeWidth=2;fontStyle=1;fontSize=20;" edge="1" parent="1" source="xlf5OFWuZGYbSsyeMgTy-29" target="xlf5OFWuZGYbSsyeMgTy-48">
          <mxGeometry relative="1" as="geometry" />
        </mxCell>
        <mxCell id="xlf5OFWuZGYbSsyeMgTy-29" value="控制块" style="rounded=1;whiteSpace=wrap;html=1;strokeWidth=2;fillWeight=4;hachureGap=8;hachureAngle=45;fillColor=#ffe6cc;sketch=0;shadow=0;glass=0;strokeColor=#d79b00;fontStyle=1;fontSize=20;" vertex="1" parent="1">
          <mxGeometry x="760" y="360" width="120" height="40" as="geometry" />
        </mxCell>
        <mxCell id="xlf5OFWuZGYbSsyeMgTy-53" style="edgeStyle=orthogonalEdgeStyle;rounded=1;sketch=1;orthogonalLoop=1;jettySize=auto;html=1;exitX=0.5;exitY=1;exitDx=0;exitDy=0;shadow=1;strokeWidth=2;fontStyle=1;fontSize=20;" edge="1" parent="1" source="xlf5OFWuZGYbSsyeMgTy-30" target="xlf5OFWuZGYbSsyeMgTy-49">
          <mxGeometry relative="1" as="geometry" />
        </mxCell>
        <mxCell id="xlf5OFWuZGYbSsyeMgTy-30" value="控制块" style="rounded=1;whiteSpace=wrap;html=1;strokeWidth=2;fillWeight=4;hachureGap=8;hachureAngle=45;fillColor=#ffe6cc;sketch=0;shadow=0;glass=0;strokeColor=#d79b00;fontStyle=1;fontSize=20;" vertex="1" parent="1">
          <mxGeometry x="960" y="360" width="120" height="40" as="geometry" />
        </mxCell>
        <mxCell id="xlf5OFWuZGYbSsyeMgTy-35" value="" style="rounded=1;whiteSpace=wrap;html=1;strokeWidth=2;fillWeight=4;hachureGap=8;hachureAngle=45;fillColor=#fad7ac;sketch=0;shadow=0;glass=0;strokeColor=#b46504;fontStyle=1;fontSize=20;" vertex="1" parent="1">
          <mxGeometry x="1160" width="120" height="200" as="geometry" />
        </mxCell>
        <mxCell id="xlf5OFWuZGYbSsyeMgTy-39" value="" style="edgeStyle=orthogonalEdgeStyle;rounded=1;sketch=1;orthogonalLoop=1;jettySize=auto;html=1;shadow=1;strokeWidth=2;fontStyle=1;fontSize=20;" edge="1" parent="1" source="xlf5OFWuZGYbSsyeMgTy-36" target="xlf5OFWuZGYbSsyeMgTy-2">
          <mxGeometry relative="1" as="geometry" />
        </mxCell>
        <mxCell id="xlf5OFWuZGYbSsyeMgTy-36" value="start" style="rounded=1;whiteSpace=wrap;html=1;strokeWidth=2;fillWeight=4;hachureGap=8;hachureAngle=45;fillColor=#dae8fc;sketch=0;shadow=0;glass=0;strokeColor=#6c8ebf;fontStyle=1;fontSize=20;" vertex="1" parent="1">
          <mxGeometry x="1180" y="20" width="80" height="40" as="geometry" />
        </mxCell>
        <mxCell id="xlf5OFWuZGYbSsyeMgTy-40" style="edgeStyle=orthogonalEdgeStyle;rounded=1;sketch=1;orthogonalLoop=1;jettySize=auto;html=1;entryX=0.5;entryY=0;entryDx=0;entryDy=0;shadow=1;strokeWidth=2;exitX=0;exitY=0.5;exitDx=0;exitDy=0;fontStyle=1;fontSize=20;" edge="1" parent="1" source="xlf5OFWuZGYbSsyeMgTy-37" target="xlf5OFWuZGYbSsyeMgTy-5">
          <mxGeometry relative="1" as="geometry">
            <Array as="points">
              <mxPoint x="1180" y="100" />
              <mxPoint x="1020" y="100" />
            </Array>
          </mxGeometry>
        </mxCell>
        <mxCell id="xlf5OFWuZGYbSsyeMgTy-37" value="end" style="rounded=1;whiteSpace=wrap;html=1;strokeWidth=2;fillWeight=4;hachureGap=8;hachureAngle=45;fillColor=#f8cecc;sketch=0;shadow=0;glass=0;strokeColor=#b85450;fontStyle=1;fontSize=20;" vertex="1" parent="1">
          <mxGeometry x="1180" y="80" width="80" height="40" as="geometry" />
        </mxCell>
        <mxCell id="xlf5OFWuZGYbSsyeMgTy-38" value="count" style="rounded=1;whiteSpace=wrap;html=1;strokeWidth=2;fillWeight=4;hachureGap=8;hachureAngle=45;fillColor=#fff2cc;sketch=0;shadow=0;glass=0;strokeColor=#d6b656;fontStyle=1;fontSize=20;" vertex="1" parent="1">
          <mxGeometry x="1180" y="140" width="80" height="40" as="geometry" />
        </mxCell>
        <mxCell id="xlf5OFWuZGYbSsyeMgTy-46" value="缓冲页" style="rounded=1;whiteSpace=wrap;html=1;strokeWidth=2;fillWeight=4;hachureGap=8;hachureAngle=45;fillColor=#b1ddf0;sketch=1;shadow=0;glass=0;strokeColor=#10739e;fontStyle=1;fontSize=20;" vertex="1" parent="1">
          <mxGeometry x="360" y="440" width="120" height="120" as="geometry" />
        </mxCell>
        <mxCell id="xlf5OFWuZGYbSsyeMgTy-47" value="缓冲页" style="rounded=1;whiteSpace=wrap;html=1;strokeWidth=2;fillWeight=4;hachureGap=8;hachureAngle=45;fillColor=#b1ddf0;sketch=1;shadow=0;glass=0;strokeColor=#10739e;fontStyle=1;fontSize=20;" vertex="1" parent="1">
          <mxGeometry x="560" y="440" width="120" height="120" as="geometry" />
        </mxCell>
        <mxCell id="xlf5OFWuZGYbSsyeMgTy-48" value="缓冲页" style="rounded=1;whiteSpace=wrap;html=1;strokeWidth=2;fillWeight=4;hachureGap=8;hachureAngle=45;fillColor=#b1ddf0;sketch=1;shadow=0;glass=0;strokeColor=#10739e;fontStyle=1;fontSize=20;" vertex="1" parent="1">
          <mxGeometry x="760" y="440" width="120" height="120" as="geometry" />
        </mxCell>
        <mxCell id="xlf5OFWuZGYbSsyeMgTy-49" value="缓冲页" style="rounded=1;whiteSpace=wrap;html=1;strokeWidth=2;fillWeight=4;hachureGap=8;hachureAngle=45;fillColor=#b1ddf0;sketch=1;shadow=0;glass=0;strokeColor=#10739e;fontStyle=1;fontSize=20;" vertex="1" parent="1">
          <mxGeometry x="960" y="440" width="120" height="120" as="geometry" />
        </mxCell>
        <mxCell id="xlf5OFWuZGYbSsyeMgTy-54" value="Free链表" style="text;html=1;align=center;verticalAlign=middle;resizable=0;points=[];autosize=1;strokeColor=none;fillColor=none;fontSize=23;fontStyle=1" vertex="1" parent="1">
          <mxGeometry x="354" y="-40" width="120" height="40" as="geometry" />
        </mxCell>
      </root>
    </mxGraphModel>
  </diagram>
</mxfile>
